<svg viewBox="0 0 155 27" fill="none" xmlns="http://www.w3.org/2000/svg">
  <g clip-path="url(#clip0_577_36243)">
    <path
      d="M88.7601 6.55523C86.1087 5.63658 83.7041 5.97423 81.7509 8.1857C81.6907 8.25566 81.6125 8.31042 81.4861 8.42601V0.200684H78.0552C78.0552 0.599174 78.0552 0.948994 78.0552 1.30186C78.0552 4.90652 78.0492 8.51118 78.0612 12.1158C78.0642 13.0467 78.0642 13.9866 78.1876 14.9053C78.5066 17.3114 79.6743 19.1731 81.8292 20.3503C83.3249 21.1686 84.938 21.3633 86.5963 21.202C88.8023 20.9861 90.6531 20.0644 91.9743 18.221C93.142 16.5935 93.4791 14.7501 93.3557 12.7759C93.1751 9.89525 91.4627 7.49214 88.7601 6.55523ZM89.9158 13.9045C89.7864 16.3076 88.077 18.0506 85.6814 18.0141C82.9006 17.9715 81.4861 15.976 81.5071 13.6155C81.5312 11.036 83.346 9.23516 85.7686 9.37204C88.1763 9.23516 90.0572 11.3189 89.9158 13.9045Z"
      fill="white" />
    <path
      d="M10.8554 6.72265C9.12791 6.01084 7.34025 5.90133 5.51948 6.35762C3.03361 6.98121 1.35429 8.50825 0.496573 10.9357C0.0932955 12.0795 0.0150477 13.2749 0.0150477 14.4765C0.0120381 18.5466 0.0090286 22.6166 0 26.6867C0 26.927 0.0752383 26.9848 0.300953 26.9848C1.21284 26.9787 2.12774 26.9726 3.03963 27C3.3767 27.0091 3.45795 26.8996 3.45795 26.5742C3.44592 24.2684 3.45193 21.9626 3.45795 19.6538C3.45795 19.4196 3.48203 19.1884 3.49407 18.9542C3.52416 18.9481 3.55426 18.945 3.58435 18.939C3.73784 19.1336 3.87628 19.3435 4.04481 19.523C5.14329 20.6698 6.49758 21.2052 8.07458 21.2447C11.2737 21.3238 14.0335 19.3892 14.9845 16.3655C15.4058 15.021 15.484 13.6491 15.2222 12.2589C14.7317 9.63984 13.3262 7.74169 10.8554 6.72265ZM7.61713 18.0173C4.98078 17.9838 3.44592 16.0613 3.46698 13.6673C3.48805 10.9083 5.3991 9.25047 7.71945 9.37215C9.99767 9.25352 11.9298 11.0847 11.8877 13.6673C11.8455 16.2834 10.1181 18.0507 7.62014 18.0173H7.61713Z"
      fill="white" />
    <path
      d="M73.6854 7.99421C71.0611 5.6854 66.8658 5.47247 63.9586 7.40104C60.8106 9.49083 59.8867 13.8864 61.6142 17.2933C62.7397 19.5078 64.6177 20.7672 67.0464 21.1353C69.4931 21.5064 71.7533 21.041 73.6854 19.3801C74.51 18.6713 75.0577 17.7709 75.4881 16.7671C75.4129 16.7367 75.3677 16.7002 75.3226 16.7002C74.2211 16.6971 73.1196 16.691 72.0181 16.7062C71.8917 16.7062 71.7593 16.8249 71.6479 16.9101C71.3289 17.1504 71.0551 17.4728 70.7029 17.634C69.3787 18.2333 68.0004 18.2789 66.6551 17.7496C65.4182 17.2629 64.723 16.2621 64.3829 14.9237C64.6086 14.9054 64.7892 14.875 64.9728 14.875C67.7265 14.8811 70.4802 14.8933 73.234 14.8994C74.0736 14.8994 74.9103 14.8933 75.7499 14.8902C75.9456 14.8902 76.1352 14.8902 76.1171 14.5982C76.072 13.8712 76.081 13.135 75.9877 12.4141C75.765 10.662 75.0066 9.15622 73.6854 7.99421ZM64.4582 12.1008C65.0872 10.1661 66.5829 9.19577 68.7648 9.26269C70.5133 9.31745 71.982 10.4369 72.4244 12.1008H64.4552H64.4582Z"
      fill="white" />
    <path
      d="M108.629 8.94918C107.287 7.16054 105.427 6.31793 103.275 6.13237C100.169 5.86468 97.0303 7.1362 95.5677 10.2542C94.7792 11.9333 94.6408 13.7006 94.9718 15.4984C95.6219 19.0209 98.5923 21.3815 102.147 21.2446C104.043 21.1716 105.58 20.4263 106.625 18.7806C106.724 18.6255 106.82 18.4673 106.962 18.2361C106.962 19.0757 106.971 19.8149 106.956 20.5541C106.95 20.8065 106.998 20.9191 107.281 20.913C108.12 20.8948 108.957 20.8948 109.797 20.9008C110.035 20.9008 110.134 20.8309 110.131 20.5784C110.116 18.1205 110.143 15.6596 110.092 13.2018C110.059 11.6443 109.571 10.2055 108.629 8.94918ZM102.408 18.0202C100.088 17.9806 98.2011 16.3654 98.3004 13.4208C98.3816 11.0724 100.13 9.226 102.553 9.37809C105.132 9.28379 106.727 11.3523 106.706 13.7311C106.685 16.2863 104.894 18.0627 102.408 18.0202Z"
      fill="white" />
    <path
      d="M46.9006 13.9745C46.4943 13.5486 46.5003 13.5212 46.9036 13.0984C48.8989 11.0117 50.8942 8.91882 52.8865 6.82903C52.9678 6.74385 53.031 6.64043 53.1423 6.49137C51.8573 6.49137 50.6504 6.50963 49.4436 6.48225C49.0163 6.47312 48.7243 6.56134 48.4174 6.91116C46.7561 8.81235 45.0527 10.677 43.3644 12.5539C43.3042 12.6178 43.2229 12.6634 43.0875 12.7668V0.206787H39.7349V20.8979C40.7521 20.8979 41.7512 20.8887 42.7474 20.9039C43.0544 20.91 43.1236 20.7975 43.1236 20.5055C43.1116 18.5891 43.1146 16.6726 43.1146 14.7562C43.1146 14.668 43.1326 14.5798 43.1477 14.4277C43.256 14.5311 43.3132 14.5798 43.3614 14.6315C45.1279 16.5936 46.8945 18.5495 48.6491 20.5207C48.8869 20.7884 49.1276 20.91 49.4888 20.9039C50.5391 20.8827 51.5924 20.8979 52.6428 20.8948C52.8775 20.8948 53.1122 20.8705 53.4583 20.8492C53.2748 20.6454 53.1784 20.5328 53.0761 20.4233C51.0176 18.2727 48.9591 16.1221 46.9006 13.9714V13.9745Z"
      fill="white" />
    <path
      d="M37.2309 15.4682C36.4785 15.4682 35.7291 15.4865 34.9798 15.4652C34.4802 15.45 34.1581 15.5139 33.8542 16.0614C32.7437 18.066 30.2939 18.4037 28.5183 17.701C25.7616 16.612 25.2529 12.7427 27.0797 10.6803C28.0428 9.59125 29.2827 9.28098 30.6791 9.37832C32.208 9.48783 33.3095 10.227 34.0378 11.5685C34.101 11.6841 34.2424 11.8331 34.3508 11.8331C35.4222 11.8544 36.4935 11.8453 37.6071 11.8453C37.595 11.7206 37.598 11.608 37.568 11.5077C37.2219 10.2909 36.6711 9.18668 35.7652 8.28627C33.159 5.70065 28.6778 5.32649 25.6592 7.45887C23.682 8.85511 22.6557 10.8263 22.5504 13.2233C22.436 15.9002 23.3509 18.1725 25.5509 19.8029C26.9624 20.8494 28.5785 21.2418 30.315 21.2418C33.8181 21.2418 36.6019 19.1946 37.5589 15.8971C37.595 15.7724 37.6161 15.6447 37.6582 15.4621C37.4686 15.4621 37.3483 15.4621 37.2279 15.4621L37.2309 15.4682Z"
      fill="white" />
    <path
      d="M116.186 0.0305287C115.172 0.0579059 114.158 0.0396544 113.146 0.0426964C113.014 0.0426964 112.885 0.0579059 112.749 0.0639897V20.8889C113.992 20.8889 115.193 20.8889 116.394 20.8889C116.601 20.8889 116.643 20.7824 116.64 20.603C116.634 20.2258 116.64 19.8455 116.64 19.4683C116.64 13.1412 116.637 6.81399 116.649 0.486815C116.649 0.124828 116.556 0.0153192 116.192 0.0244449L116.186 0.0305287Z"
      fill="white" />
    <path
      d="M122.945 15.9517C122.945 10.8109 122.945 5.667 122.945 0.526168C122.945 0.203726 122.781 0.0425045 122.452 0.0425045C121.465 0.0425045 120.475 0.060756 119.488 0.0364207C119.126 0.027295 119.033 0.133762 119.033 0.495749C119.045 7.16362 119.042 13.8315 119.042 20.4963V20.8978C120.258 20.8978 121.408 20.8887 122.557 20.9039C122.87 20.907 122.958 20.8005 122.955 20.4902C122.939 18.9784 122.948 17.4666 122.948 15.9517H122.945Z"
      fill="white" />
    <path
      d="M136.196 15.2552C135.962 15.2491 135.865 15.3039 135.856 15.5655C135.85 15.8119 135.778 16.0643 135.709 16.3047C135.402 17.3663 134.957 18.3367 133.951 18.9268C133.136 19.4044 132.245 19.453 131.333 19.4104C129.5 19.3283 128.281 17.9899 128.423 16.1495C128.474 15.4864 128.612 14.8293 128.733 14.1753C129.076 12.3319 129.443 10.4916 129.774 8.64817C129.84 8.27706 129.994 8.17059 130.346 8.21318C130.656 8.24968 130.972 8.24055 131.285 8.2436C134.89 8.24968 138.496 8.24968 142.101 8.26185C142.402 8.26185 142.444 8.13409 142.393 7.89378C142.321 7.55004 142.216 7.20935 142.182 6.85953C142.155 6.57967 142.062 6.50971 141.791 6.50971C138.348 6.51883 134.905 6.50971 131.462 6.50971C131.068 6.50971 130.671 6.50971 130.226 6.50971C130.554 4.73931 130.864 3.06626 131.18 1.36279H129.293C129.269 1.40842 129.253 1.42971 129.247 1.45101C128.531 5.11955 127.809 8.7881 127.108 12.4566C126.864 13.7282 126.575 15.0027 126.473 16.2894C126.337 17.9838 126.96 19.4196 128.417 20.3747C129.952 21.3816 131.661 21.4455 133.374 21.0683C136.269 20.4295 137.554 17.8287 137.792 15.2643C137.235 15.2643 136.714 15.2735 136.19 15.2582L136.196 15.2552Z"
      fill="white" />
    <path
      d="M58.3067 0.0335575C57.744 0.051809 57.1812 0.0396413 56.6184 0.0426832C56.1098 0.0426832 55.5982 0.0426832 55.0685 0.0426832V20.9011C56.1098 20.9011 57.124 20.9011 58.1352 20.9011C58.6438 20.9011 58.6438 20.895 58.6438 20.3809C58.6438 14.1541 58.6438 7.93036 58.6438 1.70357C58.6438 1.26249 58.6318 0.821412 58.6468 0.380335C58.6558 0.118731 58.5746 0.0244318 58.3067 0.0335575Z"
      fill="white" />
    <path
      d="M153.029 6.52179C152.929 6.52179 152.8 6.61913 152.743 6.71039C151.13 9.3021 149.526 11.9029 147.915 14.4977C146.986 15.9973 146.044 17.494 145.078 19.0453C145.011 18.8689 144.951 18.7472 144.921 18.6195C144.205 15.6627 143.491 12.703 142.772 9.74622C142.751 9.66105 142.652 9.53328 142.589 9.53024C141.957 9.51503 141.325 9.52112 140.675 9.52112C140.681 9.62758 140.675 9.70363 140.693 9.7736C141.617 13.3783 142.546 16.9829 143.467 20.5906C143.528 20.8279 143.633 20.9222 143.877 20.9161C144.439 20.8979 145.002 20.8887 145.565 20.9039C145.809 20.91 145.962 20.8279 146.089 20.6271C146.426 20.0826 146.775 19.5442 147.118 19.0028C149.547 15.1852 151.975 11.3645 154.398 7.54387C154.603 7.22143 154.786 6.88378 155 6.51571C154.296 6.51571 153.661 6.50658 153.029 6.52484V6.52179Z"
      fill="white" />
    <path
      d="M20.7838 6.92024C20.7838 6.79856 20.7748 6.67689 20.7658 6.52783H17.2958C17.2958 6.81377 17.2958 7.03887 17.2958 7.26397C17.2958 11.6869 17.3048 16.1099 17.2958 20.5328C17.2958 20.8157 17.371 20.91 17.6509 20.9069C18.5387 20.8948 19.4265 20.8857 20.3143 20.9069C20.6935 20.9161 20.7929 20.7974 20.7929 20.4172C20.7778 15.9182 20.7838 11.4192 20.7838 6.92024Z"
      fill="white" />
    <path
      d="M18.9932 -3.23562e-05C17.7051 0.0243029 16.739 1.00684 16.7511 2.29053C16.7631 3.70502 17.6991 4.61759 19.1045 4.60846C20.522 4.59934 21.3346 3.52858 21.3376 2.27532C21.3436 0.946002 20.3084 -0.0243676 18.9932 -0.00307427V-3.23562e-05Z"
      fill="white" />
  </g>
  <defs>
    <clipPath id="clip0_577_36243">
      <rect width="155" height="27" fill="white" />
    </clipPath>
  </defs>
</svg>